<?xml version="1.0" encoding="utf-8"?>
<!-- Generator: Adobe Illustrator 26.3.1, SVG Export Plug-In . SVG Version: 6.00 Build 0)  -->
<svg version="1.1" id="Layer_1" xmlns="http://www.w3.org/2000/svg" xmlns:xlink="http://www.w3.org/1999/xlink" x="0px" y="0px"
	 viewBox="0 0 288 288" style="enable-background:new 0 0 288 288;" xml:space="preserve">
<style type="text/css">
	.st0{fill:#4F824A;}
	.st1{fill:#CAA64D;}
	.st2{fill:#56AB5F;}
</style>
<g>
	<g>
		<path class="st0" d="M28.2,305.1c-22.7,0-41.1-18.4-41.1-41.1V24c0-22.7,18.4-41.1,41.1-41.1h231.6c22.7,0,41.1,18.4,41.1,41.1
			v240c0,22.7-18.4,41.1-41.1,41.1H28.2z"/>
	</g>
	<g>
		
			<image style="overflow:visible;opacity:0.75;" width="934" height="921" xlink:href="BB0CE703.png"  transform="matrix(0.24 0 0 0.24 40.92 33.48)">
		</image>
		<g>
			<path class="st1" d="M108.3,69.9c0,0,41.2,86.7-50.1,36.5c0,0-27.1,39.7,3.1,77.8c0,0,75.2-54.3,49.1,39.2c0,0,26.1,33.9,70,3.1
				c0,0-36-92.4,48.5-39.2c0,0,27.1-48,0-83.5c0,0-78.3,52.7-51.7-38.6C177.2,65.2,141.1,24.8,108.3,69.9z"/>
		</g>
	</g>
	<polygon class="st2" points="203.8,134.4 158.1,134.4 158.1,88.8 132,88.8 132,134.4 86.3,134.4 86.3,155.6 132,155.6 132,206.2 
		158.1,206.2 158.1,155.6 203.8,155.6 	"/>
</g>
</svg>
