<?xml version="1.0" encoding="utf-8"?>
<!-- Generator: Adobe Illustrator 26.3.1, SVG Export Plug-In . SVG Version: 6.00 Build 0)  -->
<svg version="1.1" id="Layer_1" xmlns="http://www.w3.org/2000/svg" xmlns:xlink="http://www.w3.org/1999/xlink" x="0px" y="0px"
	 viewBox="0 0 288 288" style="enable-background:new 0 0 288 288;" xml:space="preserve">
<style type="text/css">
	.st0{fill:#945956;}
	.st1{fill:#CAA64D;}
</style>
<g>
	<g>
		<g>
			<path class="st0" d="M24.2,310.6c-23.4,0-42.5-19.1-42.5-42.5V19.9c0-23.4,19.1-42.5,42.5-42.5h239.6c23.4,0,42.5,19.1,42.5,42.5
				v248.2c0,23.4-19.1,42.5-42.5,42.5H24.2z"/>
		</g>
	</g>
	<g>
		
			<image style="overflow:visible;opacity:0.75;" width="553" height="548" xlink:href="C7D006D2.png"  transform="matrix(0.24 0 0 0.24 84.3999 74.3877)">
		</image>
		<g>
			<g>
				<polygon class="st1" points="90.4,100.9 96.4,174.4 113.7,158.3 113.7,190.8 146.9,190.8 118.6,139.1 107.7,148.4 				"/>
				<polygon class="st1" points="103.1,89.4 176.6,95.4 160.5,112.7 193.1,112.7 193.1,145.9 141.4,117.6 150.7,106.7 				"/>
			</g>
		</g>
	</g>
</g>
</svg>
