<?xml version="1.0" encoding="utf-8"?>
<!-- Generator: Adobe Illustrator 26.3.1, SVG Export Plug-In . SVG Version: 6.00 Build 0)  -->
<svg version="1.1" id="Layer_1" xmlns="http://www.w3.org/2000/svg" xmlns:xlink="http://www.w3.org/1999/xlink" x="0px" y="0px"
	 viewBox="0 0 288 288" style="enable-background:new 0 0 288 288;" xml:space="preserve">
<style type="text/css">
	.st0{fill:#7E3A3B;}
	.st1{fill:#CAA64D;}
</style>
<g>
	<g>
		<g>
			<path class="st0" d="M27.4,306c-22.7,0-41.2-18.5-41.2-41.2V24.1c0-22.7,18.5-41.2,41.2-41.2h232.3c22.7,0,41.2,18.5,41.2,41.2
				v240.7c0,22.7-18.5,41.2-41.2,41.2H27.4z"/>
		</g>
	</g>
	<g>
		
			<image style="overflow:visible;opacity:0.75;" width="792" height="792" xlink:href="24A2FCB9.png"  transform="matrix(0.24 0 0 0.24 62.52 50.28)">
		</image>
		<g>
			<polygon class="st1" points="127.4,110.2 146.3,91.3 68.7,65.3 94.7,142.9 113.6,124 161.9,172.3 161.9,193.1 193.9,225.1 
				197.9,194.5 228.5,190.5 196.5,158.5 175.7,158.5 			"/>
		</g>
	</g>
</g>
</svg>
