<?xml version="1.0" encoding="utf-8"?>
<!-- Generator: Adobe Illustrator 26.3.1, SVG Export Plug-In . SVG Version: 6.00 Build 0)  -->
<svg version="1.1" id="Layer_1" xmlns="http://www.w3.org/2000/svg" xmlns:xlink="http://www.w3.org/1999/xlink" x="0px" y="0px"
	 viewBox="0 0 288 288" style="enable-background:new 0 0 288 288;" xml:space="preserve">
<style type="text/css">
	.st0{fill:#7E3A3B;}
	.st1{fill:#CAA64D;}
</style>
<g>
	<g>
		<g>
			<path class="st0" d="M19.6,317c-24.3,0-44.2-19.8-44.2-44.2V15.1C-24.6-9.2-4.8-29,19.6-29h248.8c24.3,0,44.2,19.8,44.2,44.2
				v257.7c0,24.3-19.8,44.2-44.2,44.2H19.6z"/>
		</g>
	</g>
	<g>
		
			<image style="overflow:visible;opacity:0.75;" width="816" height="852" xlink:href="2DA6A729.png"  transform="matrix(0.24 0 0 0.24 52.92 39.48)">
		</image>
		<g>
			<g>
				<polygon class="st1" points="101.1,172.6 95.7,185 91.2,178.8 91.2,172.6 65.9,148.1 62,176.1 81.6,197.9 131.4,194.2 
					163.6,159.2 197.3,157.7 162.6,71 125.9,54.6 120,67 99.1,67 98.2,80.9 77.8,81.4 75.9,95.1 59,95.1 62.5,135.4 				"/>
				<polygon class="st1" points="137.8,197.9 168.1,166.2 197.3,163.8 224.7,180.1 224.7,216.8 217.6,228.8 145,228.8 				"/>
			</g>
		</g>
	</g>
</g>
</svg>
