<?xml version="1.0" encoding="utf-8"?>
<!-- Generator: Adobe Illustrator 26.3.1, SVG Export Plug-In . SVG Version: 6.00 Build 0)  -->
<svg version="1.1" id="Layer_1" xmlns="http://www.w3.org/2000/svg" xmlns:xlink="http://www.w3.org/1999/xlink" x="0px"
	y="0px" viewBox="0 0 288 288" style="enable-background:new 0 0 288 288;" xml:space="preserve">
	<style type="text/css">
		.st0 {
			fill: #4170B6;
		}

		.st1 {
			fill: #FFFFFF;
		}

		.st2 {
			fill: url(#SVGID_1_);
			stroke: #6498CD;
			stroke-width: 0.6603;
			stroke-miterlimit: 10;
		}
	</style>
	<g>
		<path class="st0" d="M28,305c-22.5,0-40.8-18.3-40.8-40.8V25.8C-12.8,3.3,5.5-15,28-15h230.1c22.5,0,40.8,18.3,40.8,40.8v238.3
		c0,22.5-18.3,40.8-40.8,40.8H28z" />
		<g>

			<image style="overflow:visible;opacity:0.75;" width="833" height="905" xlink:href="56988644.png"
				transform="matrix(0.24 0 0 0.24 54.5162 35.34)">
			</image>
			<g>

				<image style="overflow:visible;opacity:0.75;" width="712" height="784" xlink:href="56988645.png"
					transform="matrix(0.24 0 0 0.24 60.08 50.0238)">
				</image>
				<g>
					<path class="st1" d="M226.7,110.3c0,0-34.1-2.2-14.5-35.5L144,52.5l0,0l0,0h0l0,0L75.8,74.8c19.6,33.4-14.5,35.5-14.5,35.5
					C71.4,198.2,144,235.5,144,235.5l0,0h0l0,0l0,0C144,235.5,216.6,198.2,226.7,110.3z" />
				</g>
			</g>
		</g>
		<linearGradient id="SVGID_1_" gradientUnits="userSpaceOnUse" x1="144.0005" y1="197.1143" x2="144.0005" y2="82.7076">
			<stop offset="0" style="stop-color:#FFFFFF" />
			<stop offset="1" style="stop-color:#6B96CB" />
		</linearGradient>
		<path class="st2" d="M192.6,118.9c0,0-20.1-1.3-8.5-22.2l-40.1-14l0,0l0,0l0,0l0,0l-40.1,14c11.5,20.9-8.5,22.2-8.5,22.2
		c5.9,54.9,48.6,78.2,48.6,78.2l0,0l0,0l0,0l0,0C144,197.1,186.7,173.8,192.6,118.9z" />
	</g>
</svg>